<svg xmlns="http://www.w3.org/2000/svg" viewBox="0 0 64 64">
  <circle cx="32" cy="32" r="32" fill="#7C6EF8"/>
  <path fill="#ffffff" d="M23.46 45.40Q20.34 45.40 20.34 42.72L20.34 42.72Q20.34 41.84 20.60 40.70Q20.86 39.56 21.34 37.76L21.34 37.76Q21.90 35.88 22.18 34.56Q22.46 33.24 22.46 32.20L22.46 32.20Q22.46 29.48 20.06 29.48L20.06 29.48Q19.38 29.48 18.74 29.64L18.74 29.64L15.54 44.72L9.78 44.72L15.58 17.52Q12.90 18.64 11.44 20.88Q9.98 23.12 9.98 26.28L9.98 26.28Q9.98 27.76 10.26 28.34Q10.54 28.92 10.54 29L10.54 29Q8.38 29 7.32 28.10Q6.26 27.20 6.26 25.12L6.26 25.12Q6.26 22.56 8.36 20.14Q10.46 17.72 13.74 16.22Q17.02 14.72 20.30 14.72L20.30 14.72Q20.86 14.72 21.90 14.80L21.90 14.80L19.30 27.04L23.42 21.52Q28.34 14.88 28.38 14.92L28.38 14.92L32.58 14.92L21.46 27.72L22.86 27.68Q25.58 27.68 26.70 28.82Q27.82 29.96 27.82 31.96L27.82 31.96Q27.82 33.12 27.54 34.42Q27.26 35.72 26.74 37.64L26.74 37.64Q26.42 38.88 26.14 40.08Q25.86 41.28 25.86 42.08L25.86 42.08Q25.86 43 26.28 43.72Q26.70 44.44 27.42 44.72L27.42 44.72Q24.98 45.40 23.46 45.40L23.46 45.40ZM38.78 49.28Q37.30 49.28 36.18 49.04Q35.06 48.80 34.24 47.88Q33.42 46.96 33.42 45.04L33.42 45.04Q33.42 42.36 35.04 37.84Q36.66 33.32 39.30 28.76L39.30 28.76Q37.30 28.88 36.14 29.36Q34.98 29.84 34.62 30.84L34.62 30.84Q34.78 30.84 34.96 31.24Q35.14 31.64 35.14 32.08L35.14 32.08Q35.14 32.80 34.50 33.22Q33.86 33.64 32.90 33.64L32.90 33.64Q31.78 33.64 31.10 33.04Q30.42 32.44 30.42 31.32L30.42 31.32Q30.42 29.96 31.48 28.84Q32.54 27.72 34.42 27.06Q36.30 26.40 38.58 26.40L38.58 26.40Q39.42 26.40 40.66 26.52L40.66 26.52Q43.94 21.32 47.60 18.02Q51.26 14.72 54.58 14.72L54.58 14.72Q56.50 14.72 57.74 15.28L57.74 15.28L51.46 44.72L45.70 44.72L48.78 30.20Q47.30 29.52 46.06 29.20Q44.82 28.88 43.42 28.76L43.42 28.76Q41.14 33.68 39.68 38.82Q38.22 43.96 38.22 47.04L38.22 47.04Q38.22 48.56 38.78 49.28L38.78 49.28ZM49.14 28.44L51.46 17.56Q49.74 18.48 47.88 20.98Q46.02 23.48 44.26 27.04L44.26 27.04Q47.14 27.60 49.14 28.44L49.14 28.44Z"/>
</svg>
