<svg xmlns="http://www.w3.org/2000/svg" width="300" height="300" viewBox="0 0 300 300">
<rect x="73.7" y="106.7" width="26.3" height="4.3" rx="1" fill="#a89bfb" fill-opacity="0.56" transform="rotate(108.4 73.7 106.7)"/>
<rect x="218.2" y="38.4" width="32.5" height="5.3" rx="1" fill="#a89bfb" fill-opacity="0.93" transform="rotate(144.9 218.2 38.4)"/>
<rect x="91.9" y="22.1" width="58.3" height="5.6" rx="1" fill="#c4b5fd" fill-opacity="0.54" transform="rotate(156.7 91.9 22.1)"/>
<rect x="231.0" y="270.2" width="45.2" height="4.6" rx="1" fill="#ede9fe" fill-opacity="0.71" transform="rotate(43.4 231.0 270.2)"/>
<rect x="283.8" y="-5.6" width="43.8" height="5.1" rx="1" fill="#ede9fe" fill-opacity="0.63" transform="rotate(84.7 283.8 -5.6)"/>
<rect x="32.3" y="214.1" width="33.3" height="3.8" rx="1" fill="#a89bfb" fill-opacity="0.94" transform="rotate(159.4 32.3 214.1)"/>
<rect x="228.5" y="299.8" width="45.0" height="4.6" rx="1" fill="#6457d6" fill-opacity="0.86" transform="rotate(139.9 228.5 299.8)"/>
<rect x="273.6" y="242.2" width="55.8" height="3.4" rx="1" fill="#6457d6" fill-opacity="0.88" transform="rotate(16.6 273.6 242.2)"/>
<rect x="213.2" y="65.8" width="45.9" height="3.6" rx="1" fill="#d8cffc" fill-opacity="0.53" transform="rotate(126.7 213.2 65.8)"/>
<rect x="256.8" y="215.0" width="37.7" height="3.1" rx="1" fill="#6457d6" fill-opacity="0.94" transform="rotate(110.4 256.8 215.0)"/>
<rect x="229.2" y="152.4" width="37.4" height="4.5" rx="1" fill="#ede9fe" fill-opacity="0.67" transform="rotate(154.6 229.2 152.4)"/>
<rect x="139.4" y="7.1" width="65.8" height="5.9" rx="1" fill="#d8cffc" fill-opacity="0.56" transform="rotate(88.4 139.4 7.1)"/>
<rect x="279.8" y="32.4" width="49.1" height="4.0" rx="1" fill="#d8cffc" fill-opacity="0.52" transform="rotate(77.0 279.8 32.4)"/>
<rect x="278.6" y="209.3" width="30.7" height="3.0" rx="1" fill="#c4b5fd" fill-opacity="0.57" transform="rotate(61.3 278.6 209.3)"/>
<rect x="276.8" y="110.6" width="36.4" height="3.4" rx="1" fill="#d8cffc" fill-opacity="0.55" transform="rotate(109.0 276.8 110.6)"/>
<rect x="41.7" y="20.6" width="47.2" height="4.2" rx="1" fill="#ede9fe" fill-opacity="0.60" transform="rotate(111.5 41.7 20.6)"/>
<rect x="143.8" y="4.1" width="53.8" height="3.7" rx="1" fill="#ede9fe" fill-opacity="0.88" transform="rotate(129.9 143.8 4.1)"/>
<rect x="299.8" y="92.4" width="56.0" height="5.1" rx="1" fill="#ede9fe" fill-opacity="0.91" transform="rotate(152.6 299.8 92.4)"/>
<rect x="114.9" y="55.7" width="26.8" height="4.9" rx="1" fill="#ede9fe" fill-opacity="0.87" transform="rotate(8.8 114.9 55.7)"/>
<rect x="-10.7" y="263.8" width="29.9" height="4.2" rx="1" fill="#c4b5fd" fill-opacity="0.62" transform="rotate(20.5 -10.7 263.8)"/>
<rect x="31.6" y="161.0" width="68.6" height="4.9" rx="1" fill="#ede9fe" fill-opacity="0.73" transform="rotate(114.1 31.6 161.0)"/>
<rect x="27.7" y="2.6" width="30.9" height="3.6" rx="1" fill="#d8cffc" fill-opacity="0.86" transform="rotate(20.6 27.7 2.6)"/>
<rect x="181.1" y="199.1" width="51.9" height="5.1" rx="1" fill="#d8cffc" fill-opacity="0.80" transform="rotate(143.9 181.1 199.1)"/>
<rect x="8.6" y="182.9" width="48.6" height="3.3" rx="1" fill="#6457d6" fill-opacity="0.64" transform="rotate(23.3 8.6 182.9)"/>
<rect x="-4.2" y="60.7" width="68.9" height="5.4" rx="1" fill="#7C6EF8" fill-opacity="0.74" transform="rotate(117.4 -4.2 60.7)"/>
<rect x="153.3" y="13.7" width="27.5" height="3.4" rx="1" fill="#ede9fe" fill-opacity="0.63" transform="rotate(177.9 153.3 13.7)"/>
<rect x="267.6" y="4.8" width="12.5" height="10.6" rx="1.5" fill="#6457d6" fill-opacity="0.80" transform="rotate(3.7 267.6 4.8)"/>
<rect x="280.7" y="12.0" width="8.0" height="11.2" rx="1.5" fill="#a89bfb" fill-opacity="0.72" transform="rotate(61.5 280.7 12.0)"/>
<rect x="203.9" y="210.7" width="9.7" height="8.0" rx="1.5" fill="#ede9fe" fill-opacity="0.59" transform="rotate(83.9 203.9 210.7)"/>
<rect x="295.8" y="248.3" width="11.3" height="9.0" rx="1.5" fill="#6457d6" fill-opacity="0.75" transform="rotate(77.2 295.8 248.3)"/>
<rect x="105.1" y="277.4" width="11.5" height="8.5" rx="1.5" fill="#c4b5fd" fill-opacity="0.68" transform="rotate(29.7 105.1 277.4)"/>
<rect x="217.5" y="21.5" width="15.5" height="19.2" rx="1.5" fill="#a89bfb" fill-opacity="0.58" transform="rotate(76.7 217.5 21.5)"/>
<rect x="278.2" y="298.1" width="14.9" height="12.3" rx="1.5" fill="#d8cffc" fill-opacity="0.49" transform="rotate(60.3 278.2 298.1)"/>
<rect x="95.9" y="41.9" width="16.9" height="20.8" rx="1.5" fill="#c4b5fd" fill-opacity="0.67" transform="rotate(50.7 95.9 41.9)"/>
<rect x="104.9" y="246.9" width="16.6" height="21.8" rx="1.5" fill="#6457d6" fill-opacity="0.84" transform="rotate(83.6 104.9 246.9)"/>
<rect x="279.8" y="31.4" width="14.9" height="20.0" rx="1.5" fill="#c4b5fd" fill-opacity="0.48" transform="rotate(11.3 279.8 31.4)"/>
<rect x="28.5" y="267.6" width="14.2" height="9.5" rx="1.5" fill="#a89bfb" fill-opacity="0.80" transform="rotate(45.7 28.5 267.6)"/>
<rect x="76.9" y="258.6" width="12.0" height="9.9" rx="1.5" fill="#d8cffc" fill-opacity="0.68" transform="rotate(62.5 76.9 258.6)"/>
<rect x="230.9" y="102.8" width="16.5" height="13.8" rx="1.5" fill="#7C6EF8" fill-opacity="0.85" transform="rotate(47.8 230.9 102.8)"/>
<rect x="145.2" y="88.4" width="6.8" height="5.7" rx="1.5" fill="#6457d6" fill-opacity="0.66" transform="rotate(2.1 145.2 88.4)"/>
<rect x="106.6" y="209.1" width="14.2" height="17.1" rx="1.5" fill="#6457d6" fill-opacity="0.53" transform="rotate(53.4 106.6 209.1)"/>
<rect x="129.3" y="151.0" width="13.7" height="17.0" rx="1.5" fill="#ede9fe" fill-opacity="0.66" transform="rotate(35.8 129.3 151.0)"/>
<rect x="190.2" y="257.5" width="13.3" height="12.9" rx="1.5" fill="#6457d6" fill-opacity="0.80" transform="rotate(5.0 190.2 257.5)"/>
<rect x="-7.6" y="272.2" width="8.5" height="5.9" rx="1.5" fill="#d8cffc" fill-opacity="0.64" transform="rotate(54.6 -7.6 272.2)"/>
<rect x="203.3" y="214.2" width="15.8" height="13.6" rx="1.5" fill="#ede9fe" fill-opacity="0.73" transform="rotate(22.5 203.3 214.2)"/>
<rect x="66.1" y="224.6" width="9.8" height="7.3" rx="1.5" fill="#6457d6" fill-opacity="0.61" transform="rotate(83.4 66.1 224.6)"/>
<rect x="162.9" y="288.9" width="8.3" height="8.1" rx="1.5" fill="#7C6EF8" fill-opacity="0.51" transform="rotate(70.4 162.9 288.9)"/>
<rect x="192.5" y="3.2" width="7.9" height="4.9" rx="1.5" fill="#ede9fe" fill-opacity="0.56" transform="rotate(59.0 192.5 3.2)"/>
<rect x="97.0" y="49.5" width="14.6" height="19.3" rx="1.5" fill="#6457d6" fill-opacity="0.82" transform="rotate(8.2 97.0 49.5)"/>
<rect x="5.5" y="174.1" width="14.9" height="14.7" rx="1.5" fill="#7C6EF8" fill-opacity="0.54" transform="rotate(40.9 5.5 174.1)"/>
<rect x="59.6" y="69.9" width="15.6" height="18.1" rx="1.5" fill="#7C6EF8" fill-opacity="0.55" transform="rotate(11.6 59.6 69.9)"/>
<rect x="79.1" y="89.2" width="17.3" height="21.2" rx="1.5" fill="#ede9fe" fill-opacity="0.84" transform="rotate(66.0 79.1 89.2)"/>
<rect x="241.3" y="56.4" width="6.7" height="7.1" rx="1.5" fill="#ede9fe" fill-opacity="0.74" transform="rotate(36.1 241.3 56.4)"/>
<rect x="151.4" y="196.5" width="12.9" height="16.8" rx="1.5" fill="#6457d6" fill-opacity="0.87" transform="rotate(23.4 151.4 196.5)"/>
<rect x="261.2" y="208.6" width="7.7" height="7.4" rx="1.5" fill="#d8cffc" fill-opacity="0.79" transform="rotate(12.5 261.2 208.6)"/>
<rect x="170.8" y="289.8" width="15.2" height="20.7" rx="1.5" fill="#c4b5fd" fill-opacity="0.85" transform="rotate(7.4 170.8 289.8)"/>
<polygon points="97.9,85.7 94.2,54.4 118.0,61.0" fill="#ede9fe" fill-opacity="0.81"/>
<polygon points="247.4,180.0 242.7,162.0 265.1,164.7" fill="#ede9fe" fill-opacity="0.54"/>
<polygon points="18.7,70.5 28.9,60.4 31.5,77.0" fill="#7C6EF8" fill-opacity="0.68"/>
<polygon points="298.1,188.0 281.2,182.3 295.3,172.7" fill="#a89bfb" fill-opacity="0.75"/>
<polygon points="269.1,46.5 276.0,65.0 258.2,66.5" fill="#6457d6" fill-opacity="0.43"/>
<polygon points="254.3,191.0 240.4,187.3 248.0,176.5" fill="#a89bfb" fill-opacity="0.68"/>
<polygon points="258.9,72.0 260.1,86.8 246.3,76.9" fill="#6457d6" fill-opacity="0.55"/>
<polygon points="60.9,105.2 82.2,85.0 87.3,120.2" fill="#c4b5fd" fill-opacity="0.73"/>
<polygon points="242.6,146.9 226.6,143.9 239.2,133.1" fill="#6457d6" fill-opacity="0.66"/>
<polygon points="239.2,184.2 239.3,168.8 248.4,181.0" fill="#7C6EF8" fill-opacity="0.50"/>
<polygon points="250.8,197.9 259.1,184.6 265.3,198.0" fill="#7C6EF8" fill-opacity="0.54"/>
<polygon points="244.9,211.8 253.5,226.2 237.0,223.3" fill="#a89bfb" fill-opacity="0.71"/>
<polygon points="101.4,161.5 97.6,178.9 83.6,166.4" fill="#c4b5fd" fill-opacity="0.70"/>
<polygon points="235.8,107.9 242.4,86.7 250.3,108.3" fill="#ede9fe" fill-opacity="0.48"/>
<polygon points="246.1,54.3 250.7,36.4 265.9,45.8" fill="#c4b5fd" fill-opacity="0.67"/>
<polygon points="67.7,27.4 85.9,23.6 84.9,41.6" fill="#a89bfb" fill-opacity="0.79"/>
<polygon points="266.2,20.9 234.9,39.2 248.1,3.8" fill="#d8cffc" fill-opacity="0.61"/>
<polygon points="242.1,68.5 223.9,61.4 239.9,47.5" fill="#ede9fe" fill-opacity="0.72"/>
<polygon points="221.4,1.5 256.6,20.0 221.5,33.7" fill="#6457d6" fill-opacity="0.47"/>
<polygon points="180.9,280.6 194.4,303.3 166.2,304.3" fill="#6457d6" fill-opacity="0.84"/>
<polygon points="64.4,28.7 86.1,52.5 61.4,61.8" fill="#a89bfb" fill-opacity="0.57"/>
<polygon points="230.2,217.7 199.4,225.4 199.5,189.8" fill="#ede9fe" fill-opacity="0.47"/>
</svg>