<svg xmlns="http://www.w3.org/2000/svg" viewBox="0 0 512 512">
  <rect width="512" height="512" rx="64" fill="#3178C6"/>
  <path fill="#ffffff" d="M317 407v50c8 4 18 7 29 9s23 3 36 3c12 0 24-1 35-4s21-6 29-12c9-5 15-12 20-21s7-19 7-32c0-9-1-17-4-24s-7-13-12-18-11-10-19-15-15-8-24-12c-7-3-13-5-18-8s-10-5-13-8-7-6-9-9-3-7-3-11c0-4 1-7 3-10s4-6 7-8 7-4 12-5 10-2 16-2c4 0 9 1 13 1s10 2 15 4 10 3 14 5 9 5 12 8v-47c-7-3-15-5-24-6s-19-2-30-2c-13 0-24 1-35 4s-21 7-29 13-15 13-20 22-7 20-7 32c0 15 4 27 13 38s21 19 39 27c7 3 14 6 20 9s11 6 16 9 8 7 11 11 4 8 4 13c0 4-1 7-3 10s-4 6-7 8-7 4-12 5-10 2-17 2c-11 0-22-2-33-6s-21-10-30-18zM209 208h64v-41H93v41h63v183h53z"/>
</svg>
